<?xml version="1.0" encoding="utf-8"?>
<!-- Generator: Adobe Illustrator 23.0.1, SVG Export Plug-In . SVG Version: 6.00 Build 0)  -->
<svg version="1.1" xmlns="http://www.w3.org/2000/svg" xmlns:xlink="http://www.w3.org/1999/xlink" x="0px" y="0px"
	 viewBox="0 0 311.8 226.8" style="enable-background:new 0 0 311.8 226.8;" xml:space="preserve">
<style type="text/css">
	.st0{fill:none;}
	.st1{font-family:'BKoodakBold';}
	.st2{font-size:72px;}
	.st3{font-family:'BEsfehanBold';}
	.st4{fill:#006837;}
	.st5{fill:#FF0000;}
</style>
<g id="Layer_1">
	<rect x="-374.5" y="133.3" class="st0" width="423.3" height="114.3"/>
	<text transform="matrix(1 0 0 1 -247.3074 196.6528)" class="st1 st2">کتایار</text>
	<rect x="-312.8" y="275.7" class="st0" width="318.5" height="99.3"/>
	<text transform="matrix(1 0 0 1 -244.6788 339.0903)" class="st2" style="font-family:'BKoodakOutline';">کتایار</text>
	<rect x="-315.5" y="-5.1" class="st0" width="319.9" height="73.5"/>
	<text transform="matrix(1 0 0 1 -248.3885 58.2954)" class="st3 st2">کتایار</text>
	<rect x="-303.6" y="-109" class="st0" width="278.8" height="82.1"/>
	<text transform="matrix(1 0 0 1 -244.5526 -60.2224)" class="st2" style="font-family:'Calibri';">کتایار</text>
	<g>
		<path class="st4" d="M136.2,136.5H63.3c1.1-4.3,3-7.9,5.7-10.8h49.8c1.1,0,1.7-0.7,1.7-2.2c0-2.5-1.8-3.7-5.3-3.7h-42
			c0-0.4-0.1-0.7-0.1-0.8c0-3,1.6-5.3,4.7-6.7L112.9,96l2.2,1.9l-24.6,13.3h27.9c3.4,0,6.2,0.8,8.2,2.5c2.2,1.8,3.3,4.4,3.3,7.8v4.3
			h6.2V136.5z"/>
		<path class="st4" d="M154.5,133.2c0,2.2-1.1,3.3-3.3,3.3h-17.5v-10.8H146v-6c0.7-1.3,2-2.8,3.8-4.4c1.7-1.5,3.3-2.6,4.8-3.3V133.2
			z M145.3,103.3c0,1.3-0.4,2.4-1.3,3.3s-1.9,1.3-3.2,1.3s-2.4-0.4-3.2-1.3c-0.9-0.9-1.3-2-1.3-3.3c0-1.3,0.4-2.4,1.3-3.2
			c0.9-0.9,1.9-1.3,3.2-1.3c1.3,0,2.3,0.4,3.2,1.3C144.9,101,145.3,102,145.3,103.3z M158.2,103.3c0,1.3-0.4,2.3-1.3,3.2
			c-0.9,0.9-2,1.3-3.2,1.3c-1.3,0-2.4-0.4-3.2-1.3s-1.3-2-1.3-3.3c0-1.3,0.4-2.4,1.3-3.2c0.9-0.9,1.9-1.3,3.2-1.3s2.4,0.4,3.2,1.3
			C157.8,100.9,158.2,102,158.2,103.3z"/>
		<path class="st5" d="M179.5,136.5h-12.4c-2.1,0-3.2-1.1-3.2-3.3V95.4c0.7-1.4,1.9-2.8,3.7-4.4c1.7-1.5,3.3-2.5,4.8-3.3v38h7.1
			V136.5z"/>
		<path class="st5" d="M202,133.2c0,2.2-1.1,3.3-3.2,3.3h-21.9v-10.8h16.6v-6c0.7-1.3,1.9-2.8,3.7-4.4c1.7-1.5,3.3-2.6,4.8-3.3
			V133.2z M187.9,147c0,1.3-0.4,2.4-1.3,3.2s-1.9,1.3-3.2,1.3c-1.3,0-2.4-0.4-3.3-1.3c-0.9-0.9-1.3-1.9-1.3-3.2
			c0-1.2,0.4-2.3,1.3-3.2c0.9-0.9,2-1.3,3.2-1.3c1.2,0,2.2,0.4,3.1,1.3C187.4,144.7,187.9,145.8,187.9,147z M200.7,147
			c0,1.3-0.4,2.4-1.3,3.2s-1.9,1.3-3.2,1.3s-2.4-0.4-3.3-1.3s-1.3-1.9-1.3-3.2c0-1.3,0.4-2.3,1.3-3.2s2-1.3,3.2-1.3
			c1.2,0,2.2,0.4,3.1,1.3S200.7,145.8,200.7,147z"/>
		<path class="st5" d="M219.9,136.5h-8.5V95.4c0.6-1.2,1.9-2.7,3.8-4.3c1.7-1.5,3.3-2.6,4.8-3.3V136.5z"/>
		<path class="st5" d="M244.4,136.5c0,3.1-0.8,5.7-2.3,7.8c-1.7,2.3-4.1,3.5-7.1,3.5c-2.3,0-4.4-0.9-6.1-2.6s-2.6-3.7-2.6-6
			c0-0.1,0-0.6,0.1-1.3c1.1,0.7,2.5,1.1,4.1,1.1c2.9,0,4.3-0.8,4.3-2.4v-10.8c0.9-1.6,2.3-3.2,4.1-4.8c2-1.7,3.8-2.8,5.4-3.2V136.5z
			"/>
	</g>
</g>
<g id="Layer_2">
</g>
</svg>
